<svg xmlns="http://www.w3.org/2000/svg" viewBox="0 0 64 64" fill="none">
  <!-- Background circle -->
  <circle cx="32" cy="32" r="32" fill="#4F46E5"/>
  
  <!-- Calendar icon base -->
  <rect x="14" y="18" width="18" height="20" rx="2" fill="white" opacity="0.9"/>
  <rect x="14" y="18" width="18" height="4" rx="2" fill="#818CF8"/>
  
  <!-- Calendar grid dots -->
  <circle cx="18" cy="26" r="1.5" fill="#4F46E5"/>
  <circle cx="23" cy="26" r="1.5" fill="#4F46E5"/>
  <circle cx="28" cy="26" r="1.5" fill="#4F46E5"/>
  <circle cx="18" cy="31" r="1.5" fill="#4F46E5"/>
  <circle cx="23" cy="31" r="1.5" fill="#4F46E5"/>
  <circle cx="28" cy="31" r="1.5" fill="#4F46E5"/>
  
  <!-- Second calendar -->
  <rect x="32" y="26" width="18" height="20" rx="2" fill="white" opacity="0.9"/>
  <rect x="32" y="26" width="18" height="4" rx="2" fill="#818CF8"/>
  
  <!-- Calendar grid dots -->
  <circle cx="36" cy="34" r="1.5" fill="#4F46E5"/>
  <circle cx="41" cy="34" r="1.5" fill="#4F46E5"/>
  <circle cx="46" cy="34" r="1.5" fill="#4F46E5"/>
  <circle cx="36" cy="39" r="1.5" fill="#4F46E5"/>
  <circle cx="41" cy="39" r="1.5" fill="#4F46E5"/>
  <circle cx="46" cy="39" r="1.5" fill="#4F46E5"/>
  
  <!-- Swap arrows -->
  <path d="M 28 24 L 34 24 L 32 21 M 34 24 L 32 27" stroke="#10B981" stroke-width="2" stroke-linecap="round" fill="none"/>
  <path d="M 36 40 L 30 40 L 32 43 M 30 40 L 32 37" stroke="#10B981" stroke-width="2" stroke-linecap="round" fill="none"/>
</svg>
